<svg width="111" height="57" viewBox="0 0 111 57" fill="none" xmlns="http://www.w3.org/2000/svg">
<path d="M15.08 29.08C15.4267 29.08 15.6933 29.24 15.88 29.56C16.0933 29.88 16.2 30.32 16.2 30.88C16.2 31.9467 15.9467 32.7733 15.44 33.36C14.2933 34.7733 13.04 35.9333 11.68 36.84C10.3467 37.7467 8.82667 38.2 7.12 38.2C4.77333 38.2 3.02667 37.1333 1.88 35C0.76 32.8667 0.2 30.1067 0.2 26.72C0.2 23.4667 0.613333 19.76 1.44 15.6C2.29333 11.44 3.53333 7.86667 5.16 4.88C6.81333 1.89333 8.77333 0.399998 11.04 0.399998C12.32 0.399998 13.32 0.999998 14.04 2.2C14.7867 3.37333 15.16 5.06667 15.16 7.28C15.16 10.4533 14.28 14.1333 12.52 18.32C10.76 22.5067 8.37333 26.6533 5.36 30.76C5.54667 31.8533 5.85333 32.64 6.28 33.12C6.70667 33.5733 7.26667 33.8 7.96 33.8C9.05333 33.8 10.0133 33.4933 10.84 32.88C11.6667 32.24 12.72 31.16 14 29.64C14.32 29.2667 14.68 29.08 15.08 29.08ZM10.16 4.36C9.54667 4.36 8.85333 5.46667 8.08 7.68C7.30667 9.89333 6.62667 12.64 6.04 15.92C5.45333 19.2 5.13333 22.3467 5.08 25.36C6.97333 22.24 8.48 19.12 9.6 16C10.72 12.8533 11.28 9.98666 11.28 7.4C11.28 5.37333 10.9067 4.36 10.16 4.36ZM33.3669 25.72C33.7135 25.72 33.9802 25.8933 34.1669 26.24C34.3535 26.5867 34.4469 27.0267 34.4469 27.56C34.4469 28.84 34.0602 29.6 33.2869 29.84C31.6869 30.4 29.9269 30.72 28.0069 30.8C27.5002 33.04 26.5002 34.84 25.0069 36.2C23.5135 37.5333 21.8202 38.2 19.9269 38.2C18.3269 38.2 16.9535 37.8133 15.8069 37.04C14.6869 36.2667 13.8335 35.24 13.2469 33.96C12.6602 32.68 12.3669 31.2933 12.3669 29.8C12.3669 27.7733 12.7535 25.9733 13.5269 24.4C14.3002 22.8 15.3669 21.56 16.7269 20.68C18.0869 19.7733 19.5935 19.32 21.2469 19.32C23.2735 19.32 24.9002 20.0267 26.1269 21.44C27.3802 22.8267 28.1135 24.5467 28.3269 26.6C29.5802 26.52 31.0735 26.2533 32.8069 25.8C33.0202 25.7467 33.2069 25.72 33.3669 25.72ZM20.2469 33.96C21.1002 33.96 21.8335 33.6133 22.4469 32.92C23.0869 32.2267 23.5135 31.2267 23.7269 29.92C22.9002 29.36 22.2602 28.6267 21.8069 27.72C21.3802 26.8133 21.1669 25.8533 21.1669 24.84C21.1669 24.4133 21.2069 23.9867 21.2869 23.56H21.0869C20.0202 23.56 19.1269 24.08 18.4069 25.12C17.7135 26.1333 17.3669 27.5733 17.3669 29.44C17.3669 30.9067 17.6469 32.0267 18.2069 32.8C18.7935 33.5733 19.4735 33.96 20.2469 33.96ZM51.4938 29.16C51.8404 29.16 52.1071 29.3333 52.2938 29.68C52.5071 30 52.6137 30.4133 52.6137 30.92C52.6137 31.5333 52.5204 32.0133 52.3338 32.36C52.1471 32.7067 51.8538 33.0133 51.4538 33.28C49.1604 34.8267 47.4804 35.9733 46.4138 36.72L43.8538 38.44C42.8404 43.96 41.5071 48.2933 39.8538 51.44C38.2271 54.6133 36.1471 56.2 33.6138 56.2C32.2538 56.2 31.1471 55.7733 30.2938 54.92C29.4404 54.0933 29.0137 53 29.0137 51.64C29.0137 49.7467 29.7604 47.7067 31.2538 45.52C32.7471 43.36 35.5471 40.6933 39.6537 37.52L39.8938 35.96C39.4404 36.68 38.8404 37.24 38.0938 37.64C37.3738 38.0133 36.6538 38.2 35.9338 38.2C34.2804 38.2 32.9604 37.6 31.9738 36.4C30.9871 35.2 30.4938 33.6267 30.4938 31.68C30.4938 29.5467 30.9871 27.5333 31.9738 25.64C32.9604 23.72 34.2671 22.1867 35.8938 21.04C37.5471 19.8667 39.2938 19.28 41.1338 19.28C41.7204 19.28 42.1071 19.4 42.2938 19.64C42.5071 19.8533 42.6804 20.2533 42.8138 20.84C43.3204 20.7333 43.9071 20.68 44.5738 20.68C45.2404 20.68 45.7071 20.7867 45.9738 21C46.2671 21.1867 46.4138 21.5733 46.4138 22.16C46.4138 22.48 46.4004 22.7333 46.3738 22.92C46.2671 23.7467 45.9338 25.84 45.3738 29.2C45.2671 29.84 45.1471 30.5467 45.0138 31.32C44.9071 32.0667 44.7871 32.8667 44.6538 33.72C46.7071 32.12 48.6804 30.7067 50.5738 29.48C50.9204 29.2667 51.2271 29.16 51.4938 29.16ZM37.3738 34.16C37.9871 34.16 38.5738 33.7867 39.1338 33.04C39.6938 32.2933 40.0938 31.2267 40.3338 29.84L41.6138 23C40.5204 23.0267 39.5071 23.4533 38.5738 24.28C37.6404 25.08 36.8938 26.1467 36.3338 27.48C35.7738 28.8133 35.4938 30.2267 35.4938 31.72C35.4938 32.5467 35.6538 33.16 35.9738 33.56C36.3204 33.96 36.7871 34.16 37.3738 34.16ZM34.0538 52.32C34.7204 52.32 35.4671 51.52 36.2938 49.92C37.1471 48.32 37.9604 45.7733 38.7338 42.28C36.6804 44.04 35.2004 45.6267 34.2938 47.04C33.3871 48.4533 32.9338 49.6933 32.9338 50.76C32.9338 51.2133 33.0138 51.5867 33.1738 51.88C33.3604 52.1733 33.6538 52.32 34.0538 52.32ZM70.5544 25.72C70.901 25.72 71.1677 25.8933 71.3544 26.24C71.541 26.5867 71.6344 27.0267 71.6344 27.56C71.6344 28.84 71.2477 29.6 70.4744 29.84C68.8744 30.4 67.1144 30.72 65.1944 30.8C64.6877 33.04 63.6877 34.84 62.1944 36.2C60.701 37.5333 59.0077 38.2 57.1144 38.2C55.5144 38.2 54.141 37.8133 52.9944 37.04C51.8744 36.2667 51.021 35.24 50.4344 33.96C49.8477 32.68 49.5544 31.2933 49.5544 29.8C49.5544 27.7733 49.941 25.9733 50.7144 24.4C51.4877 22.8 52.5544 21.56 53.9144 20.68C55.2744 19.7733 56.781 19.32 58.4344 19.32C60.461 19.32 62.0877 20.0267 63.3144 21.44C64.5677 22.8267 65.301 24.5467 65.5144 26.6C66.7677 26.52 68.261 26.2533 69.9944 25.8C70.2077 25.7467 70.3944 25.72 70.5544 25.72ZM57.4344 33.96C58.2877 33.96 59.021 33.6133 59.6344 32.92C60.2744 32.2267 60.701 31.2267 60.9144 29.92C60.0877 29.36 59.4477 28.6267 58.9944 27.72C58.5677 26.8133 58.3544 25.8533 58.3544 24.84C58.3544 24.4133 58.3944 23.9867 58.4744 23.56H58.2744C57.2077 23.56 56.3144 24.08 55.5944 25.12C54.901 26.1333 54.5544 27.5733 54.5544 29.44C54.5544 30.9067 54.8344 32.0267 55.3944 32.8C55.981 33.5733 56.661 33.96 57.4344 33.96ZM87.0569 29.08C87.4035 29.08 87.6702 29.24 87.8569 29.56C88.0702 29.88 88.1769 30.32 88.1769 30.88C88.1769 31.9467 87.9235 32.7733 87.4169 33.36C86.2702 34.7733 85.0169 35.9333 83.6569 36.84C82.2969 37.7467 80.7369 38.2 78.9769 38.2C73.5369 38.2 70.8169 34.3733 70.8169 26.72C70.8169 25.5467 70.8569 24.36 70.9369 23.16H69.3769C68.5769 23.16 68.0302 23.0133 67.7369 22.72C67.4702 22.4267 67.3369 21.96 67.3369 21.32C67.3369 19.8267 67.9369 19.08 69.1369 19.08H71.4169C71.8702 16.1467 72.5635 13.4667 73.4969 11.04C74.4302 8.61333 75.5502 6.68 76.8569 5.24C78.1902 3.8 79.6169 3.08 81.1369 3.08C82.2569 3.08 83.1369 3.57333 83.7769 4.56C84.4169 5.54667 84.7369 6.78667 84.7369 8.28C84.7369 12.4133 83.0035 16.0133 79.5369 19.08H84.0169C84.4435 19.08 84.7502 19.1733 84.9369 19.36C85.1235 19.5467 85.2169 19.8933 85.2169 20.4C85.2169 22.24 83.7102 23.16 80.6969 23.16H75.8169C75.7635 24.4933 75.7369 25.5333 75.7369 26.28C75.7369 29.0533 76.0569 31 76.6969 32.12C77.3635 33.24 78.4035 33.8 79.8169 33.8C80.9635 33.8 81.9769 33.4533 82.8569 32.76C83.7369 32.0667 84.7769 31.0267 85.9769 29.64C86.2969 29.2667 86.6569 29.08 87.0569 29.08ZM80.0569 6.92C79.6569 6.92 79.2035 7.42667 78.6969 8.44C78.2169 9.42667 77.7502 10.8133 77.2969 12.6C76.8702 14.36 76.5102 16.32 76.2169 18.48C77.7902 17.12 78.9635 15.6 79.7369 13.92C80.5369 12.2133 80.9369 10.6667 80.9369 9.28C80.9369 7.70667 80.6435 6.92 80.0569 6.92ZM90.16 16.72C89.04 16.72 88.2 16.4667 87.64 15.96C87.08 15.4267 86.8 14.6933 86.8 13.76C86.8 12.8267 87.16 12.0533 87.88 11.44C88.6267 10.8 89.5467 10.48 90.64 10.48C91.6267 10.48 92.4267 10.72 93.04 11.2C93.6533 11.68 93.96 12.36 93.96 13.24C93.96 14.3067 93.6133 15.16 92.92 15.8C92.2267 16.4133 91.3067 16.72 90.16 16.72ZM89.84 38.2C88.1067 38.2 86.84 37.5867 86.04 36.36C85.2667 35.1333 84.88 33.5067 84.88 31.48C84.88 30.28 85.0267 28.7467 85.32 26.88C85.64 24.9867 86.04 23.2267 86.52 21.6C86.76 20.7467 87.08 20.16 87.48 19.84C87.88 19.52 88.52 19.36 89.4 19.36C90.76 19.36 91.44 19.8133 91.44 20.72C91.44 21.3867 91.1867 22.9333 90.68 25.36C90.04 28.2933 89.72 30.28 89.72 31.32C89.72 32.12 89.8267 32.7333 90.04 33.16C90.2533 33.5867 90.6133 33.8 91.12 33.8C91.6 33.8 92.2 33.4667 92.92 32.8C93.64 32.1333 94.6 31.08 95.8 29.64C96.12 29.2667 96.48 29.08 96.88 29.08C97.2267 29.08 97.4933 29.24 97.68 29.56C97.8933 29.88 98 30.32 98 30.88C98 31.9467 97.7467 32.7733 97.24 33.36C94.6 36.5867 92.1333 38.2 89.84 38.2ZM110.604 25.8C110.604 27.9067 110.11 29.9067 109.124 31.8C108.164 33.6667 106.87 35.1867 105.244 36.36C103.644 37.5333 101.924 38.1467 100.084 38.2C99.7371 43.3467 98.9504 47.64 97.7238 51.08C96.4971 54.5467 94.6971 56.28 92.3237 56.28C90.8837 56.28 89.8171 55.76 89.1237 54.72C88.4304 53.68 88.0837 52.24 88.0837 50.4C88.0837 47.7867 88.6837 44.7333 89.8837 41.24C91.0837 37.7733 92.9371 33.9467 95.4438 29.76C95.4438 25.8667 95.4171 23.16 95.3638 21.64C95.3371 20.8667 95.6438 20.2533 96.2838 19.8C96.9238 19.3467 97.7238 19.12 98.6838 19.12C99.2438 19.12 99.6438 19.24 99.8838 19.48C100.15 19.6933 100.297 20.1333 100.324 20.8C100.324 21.4667 100.337 21.96 100.364 22.28C101.217 21.2133 102.057 20.4533 102.884 20C103.71 19.52 104.59 19.28 105.524 19.28C107.017 19.28 108.23 19.88 109.164 21.08C110.124 22.28 110.604 23.8533 110.604 25.8ZM100.284 34.36C101.244 34.1467 102.124 33.6267 102.924 32.8C103.75 31.9467 104.404 30.9067 104.884 29.68C105.364 28.4267 105.604 27.12 105.604 25.76C105.604 24.96 105.444 24.36 105.124 23.96C104.804 23.5333 104.377 23.32 103.844 23.32C102.884 23.32 101.724 24.3333 100.364 26.36C100.337 27.5333 100.324 29.2533 100.324 31.52C100.324 32.7467 100.31 33.6933 100.284 34.36ZM92.6437 52.36C93.3638 52.36 93.9638 50.7867 94.4438 47.64C94.9238 44.52 95.2304 40.6267 95.3638 35.96C94.2171 38.6267 93.3104 41.1733 92.6437 43.6C91.9771 46.0267 91.6437 48.0667 91.6437 49.72C91.6437 50.5733 91.7504 51.2267 91.9637 51.68C92.1504 52.1333 92.3771 52.36 92.6437 52.36Z" fill="#3E23E6"/>
</svg>
