<svg width="30" height="34" viewBox="0 0 30 34" xmlns="http://www.w3.org/2000/svg" fill="#7c858c"><path fill-rule="evenodd" clip-rule="evenodd" d="M12.065 2.462c-5.305 0-9.621 4.348-9.621 9.693 0 5.344 4.316 9.693 9.621 9.693 5.306 0 9.622-4.349 9.622-9.693 0-5.345-4.316-9.693-9.622-9.693zm0 21.847C5.413 24.31 0 18.856 0 12.155 0 5.453 5.413 0 12.065 0 18.718 0 24.13 5.453 24.13 12.155c0 6.702-5.412 12.154-12.065 12.154z" fill="currentColor"/><path fill-rule="evenodd" clip-rule="evenodd" d="M27.6 33.507a2.327 2.327 0 0 1-1.696-.743l-8.245-8.722c-.937-.991-.937-2.598 0-3.589a2.307 2.307 0 0 1 3.392 0l8.246 8.722c.937.991.937 2.598 0 3.589a2.327 2.327 0 0 1-1.696.743z" fill="currentColor"/></svg>